# xmcd
#
# Track frame offsets:
#	150
#	15317
#	30930
#	41180
#	51520
#	67995
#	77782
#	90002
#	101822
#	115222
#	131175
#	149000
#	160172
#	174782
#
# Disc length: 2490 seconds
#
# Revision: 0
# Processed by: cddbd v1.4PL0 Copyright (c) Steve Scherf et al.
# Submitted via: EasyCDDAExtractor 4.6.9.1
#
DISCID=b109b80e
DTITLE=Ray Conniff - Ao Vivo
DYEAR=1900
DGENRE=
TTITLE0=Halleluja
TTITLE1=La Mer
TTITLE2=Smoke Gets In Your Eyes
TTITLE3=Wonderful
TTITLE4=Chattanooga Choo-Choo
TTITLE5=An Improvisation On Schubert's Serenade
TTITLE6=An Improvisation On Chopin's
TTITLE7=Say Has Nobody Seen My Sweet Gipsy Rose
TTITLE8=Somehere, My Love
TTITLE9=Memories Are Made Of This
TTITLE10=Emotion - How Deep Is Your Love
TTITLE11=Mame
TTITLE12=Tie A Yellow Ribbon Round The Ole Oak Tree
TTITLE13=Mack The Kniff
EXTD=
EXTT0=
EXTT1=
EXTT2=
EXTT3=
EXTT4=
EXTT5=
EXTT6=
EXTT7=
EXTT8=
EXTT9=
EXTT10=
EXTT11=
EXTT12=
EXTT13=
PLAYORDER=
